<svg width="32" height="32" viewBox="0 0 32 32" fill="none" xmlns="http://www.w3.org/2000/svg">
  <!-- Peacock-inspired favicon design -->
  <circle cx="16" cy="16" r="16" fill="url(#gradient)"/>
  
  <!-- Peacock feather pattern -->
  <path d="M16 4C20 8 24 12 20 16C24 20 20 24 16 28C12 24 8 20 12 16C8 12 12 8 16 4Z" fill="white" opacity="0.3"/>
  <path d="M16 6C18 8 20 10 18 12C20 14 18 16 16 18C14 16 12 14 14 12C12 10 14 8 16 6Z" fill="white" opacity="0.5"/>
  <circle cx="16" cy="16" r="4" fill="white" opacity="0.7"/>
  <circle cx="16" cy="16" r="2" fill="white"/>
  
  <defs>
    <linearGradient id="gradient" x1="0%" y1="0%" x2="100%" y2="100%">
      <stop offset="0%" style="stop-color:#2563eb;stop-opacity:1" />
      <stop offset="50%" style="stop-color:#06b6d4;stop-opacity:1" />
      <stop offset="100%" style="stop-color:#10b981;stop-opacity:1" />
    </linearGradient>
  </defs>
</svg>
